<svg viewBox="0 0 16 16" xmlns="http://www.w3.org/2000/svg"><path d="m7.998 0c-.712 1.746-1.141 2.888-1.934 4.582a12.491 12.491 0 0 0 2.052 1.793c-1.042-.428-1.824-.752-2.355-1.199-1.015 2.117-2.534 5.027-5.761 10.824 2.536-1.464 4.502-2.366 6.334-2.71a4.642 4.642 0 0 1 -.12-1.087l.003-.081c.04-1.625.886-2.874 1.887-2.79 1.001.086 1.78 1.472 1.74 3.097-.008.305-.043.6-.103.872 1.812.355 3.757 1.255 6.259 2.699-.493-.908-.934-1.727-1.354-2.506-.663-.513-1.353-1.182-2.763-1.905.969.252 1.592.454 2.132.778-4.275-7.957-4.55-8.927-6.017-12.367z"/></svg>