<?xml version="1.0" encoding="UTF-8" standalone="no"?>
<!DOCTYPE svg PUBLIC "-//W3C//DTD SVG 1.1//EN" "http://www.w3.org/Graphics/SVG/1.1/DTD/svg11.dtd">
<svg width="100%" height="100%" viewBox="0 0 512 512" version="1.1" xmlns="http://www.w3.org/2000/svg" xmlns:xlink="http://www.w3.org/1999/xlink" xml:space="preserve" xmlns:serif="http://www.serif.com/" style="fill-rule:evenodd;clip-rule:evenodd;stroke-linejoin:round;stroke-miterlimit:2;">
    <path d="M35.017,233.946L35.017,111.792C35.017,91.745 51.326,75.435 71.374,75.435L440.627,75.435C460.674,75.435 476.984,91.744 476.984,111.792L476.984,213.68L476.983,213.759L476.983,377.663L504.485,377.663C508.635,377.663 512,381.027 511.999,385.178L511.999,408.033C511.999,423.765 499.2,436.565 483.467,436.565L28.532,436.565C12.799,436.565 0,423.766 0,408.033L0,385.178C0,381.028 3.365,377.663 7.515,377.663L35.016,377.663L35.016,234.025L35.017,233.946ZM428.248,330.965L428.248,124.17L83.751,124.17L83.751,377.663L189.732,377.663C193.882,377.663 197.247,381.028 197.247,385.178L197.247,390.959C197.247,392.402 198.421,393.576 199.864,393.576L292.005,393.576C293.448,393.576 294.622,392.402 294.622,390.959L294.622,385.178C294.622,381.028 297.987,377.663 302.137,377.663L428.247,377.663L428.247,331.044L428.248,330.965ZM443.277,345.731L443.277,377.663L461.953,377.663L461.953,197.955L461.954,197.876L461.954,111.792C461.954,100.031 452.386,90.464 440.626,90.464L71.374,90.464C59.613,90.464 50.046,100.032 50.046,111.792L50.046,377.663L68.722,377.663L68.722,116.655C68.722,112.504 72.087,109.14 76.237,109.14L435.763,109.14C439.913,109.14 443.278,112.505 443.278,116.655L443.278,345.652L443.277,345.731Z" style="fill-rule:nonzero;"/>
    <path d="M496.971,408.033C496.971,415.479 490.914,421.536 483.468,421.536L28.532,421.536C21.086,421.536 15.029,415.479 15.029,408.033L15.029,392.693L182.304,392.693C183.178,401.612 190.72,408.605 199.866,408.605L292.007,408.605C301.152,408.605 308.695,401.612 309.569,392.693L496.971,392.693L496.971,408.033Z" style="fill:white;fill-rule:nonzero;"/>
    <g>
        <path d="M208.739,318.037C206.67,321.625 207.902,326.212 211.49,328.281C224.968,336.052 240.359,340.158 255.999,340.158C305.201,340.158 345.23,300.129 345.23,250.927C345.23,201.725 305.201,161.695 255.999,161.695C206.797,161.695 166.768,201.724 166.768,250.927C166.768,271.293 173.81,291.212 186.597,307.016C189.202,310.236 193.925,310.734 197.145,308.129C200.365,305.524 200.864,300.801 198.258,297.581C187.47,284.248 181.768,268.115 181.768,250.927C181.768,209.996 215.068,176.695 255.999,176.695C296.93,176.695 330.23,209.995 330.23,250.927C330.23,291.858 296.93,325.158 255.999,325.158C242.985,325.158 230.184,321.744 218.982,315.285C215.395,313.218 210.809,314.448 208.739,318.037Z" style="fill-rule:nonzero;"/>
        <path d="M238.93,294.522C240.501,294.522 242.063,294.029 243.376,293.062L292.427,256.966C294.347,255.553 295.482,253.31 295.482,250.926C295.482,248.541 294.348,246.298 292.427,244.885L243.376,208.789C241.098,207.113 238.071,206.86 235.546,208.137C233.022,209.413 231.431,212.001 231.431,214.83L231.431,287.021C231.431,289.85 233.022,292.438 235.546,293.714C236.616,294.255 237.775,294.522 238.93,294.522ZM246.431,229.662L275.328,250.927L246.431,272.192L246.431,229.662Z" style="fill-rule:nonzero;"/>
    </g>
</svg>
