<svg clip-rule="evenodd" fill-rule="evenodd" viewBox="0 0 494 494" xmlns="http://www.w3.org/2000/svg"><g fill-rule="nonzero"><path d="m168.839 241.198c0-38.117 17.894-72.05 45.685-93.896l-42.536-68.082c-35.648 25.603-62.472 62.66-75.127 105.796 19.811 12.751 32.949 35.031 32.949 60.353 0 24.424-12.143 45.957-30.783 58.918 13.606 40.86 40.12 75.838 74.706 100.113l39.559-70.358c-27.105-21.838-44.453-55.318-44.453-92.844z" transform="matrix(.628255 0 0 .628255 187.503 183.427)"/><path d="m399.494 370.126c12.002 0 23.301 2.936 33.23 8.149 30.924-32.591 50.906-75.595 54.211-123.228l-80.148-1.551c-6.171 60.111-56.954 106.941-118.677 106.941-17.084 0-33.388-3.594-48.101-10.093l-39.841 69.704c26.56 13.069 56.376 20.411 87.941 20.411 13.622 0 26.981-1.379 39.854-4.006 2.746-37.072 33.717-66.327 71.531-66.327z" transform="matrix(.628255 0 0 .628255 187.503 183.427)"/><path d="m438.211 110.152c-11.677 8.269-25.968 13.163-41.399 13.163-39.637 0-71.73-32.102-71.73-71.715 0-2.104.094-4.139.25-6.181-12.05-2.307-24.503-3.491-37.222-3.491-31.859 0-61.988 7.498-88.689 20.777l39.607 69.75c14.979-6.748 31.593-10.544 49.082-10.544 61.177 0 111.601 46.074 118.491 105.414l80.147-2.447c-3.539-43.758-21.261-83.506-48.537-114.726z" transform="matrix(.628255 0 0 .628255 187.503 183.427)"/></g><circle cx="352.403" cy="183.848" r="17.78" transform="matrix(1.82245 0 0 1.82316 -205.445 -119.341)"/><circle cx="352.403" cy="183.848" r="17.78" transform="matrix(1.82245 0 0 1.82316 -203.75 124.964)"/><circle cx="352.403" cy="183.848" r="17.78" transform="matrix(1.82245 0 0 1.82316 -418.216 .161835)"/><path d="m76.992 46.856c.107 2.906-.85 4.316-1.713 6.812l-1.553.776c-1.271 2.468.123 1.567-.787 3.53-1.984 1.764-6.021 5.52-7.313 5.863-.943-.021.639-1.113.846-1.541-2.656 1.824-2.131 2.738-6.193 3.846l-.119-.264c-10.018 4.713-23.934-4.627-23.751-17.371-.107.809-.304.607-.526.934-.517-6.557 3.028-13.143 9.007-15.832 5.848-2.895 12.704-1.707 16.893 2.197-2.301-3.014-6.881-6.209-12.309-5.91-5.317.084-10.291 3.463-11.951 7.131-2.724 1.715-3.04 6.611-4.227 7.507-1.597 11.737 3.004 16.808 10.787 22.773 1.225.826-4.443-1.459-6.39-3.697 1.033 1.512 2.148 2.982 3.589 4.137-2.438-.826-5.695-5.908-6.646-6.115 3.33 5.962 13.94 9.422 13.214 9.154-1.469-.756-3.467-2.322-3.11-2.615 9.182 3.43 18.667 2.598 26.612-3.771 2.021-1.574 4.229-4.252 4.867-4.289-.961 1.445.164.695-.574 1.971 2.014-3.248-.875-1.322 2.082-5.609l1.092 1.504c-.406-2.696 3.348-5.97 2.967-10.234.861-1.304.381.54.707-2.206.352.923 1.038-2.985.84-6.784.029-1.65-.549-2.722-1.066-5.148.375-.57 1.002 1.478 1.512 1.562-.328-1.929-1.443-4.465-2.652-6.217-1.586-4.947 2.537-5.81 4.662-1.892-2.27-8.352-9.715-16.156-16.564-19.818.838.767 1.896 1.73 1.516 1.881-3.406-2.028-2.807-2.186-3.295-3.043-2.775-1.129-2.957.091-4.795.002-5.23-2.774-6.238-2.479-11.051-4.217l.219 1.023c-3.465-1.154-4.037.438-7.782.004-.228-.178 1.2-.644 2.375-.815-3.35.442-3.193-.66-6.471.122.808-.567 1.662-.942 2.524-1.424-2.732.166-6.522 1.59-5.352.295-4.456 1.988-12.37 4.779-16.811 8.943l-.14-.933c-2.035 2.443-8.874 7.296-9.419 10.46l-.544.127c-1.059 1.793-1.744 3.825-2.584 5.67-1.385 2.36-2.03.908-1.833 1.278-2.724 5.523-4.077 10.164-5.246 13.97.833 1.245.02 7.495.335 12.497-1.368 24.704 17.338 48.69 37.785 54.228 2.997 1.072 7.454 1.031 11.245 1.141-4.473-1.279-5.051-.678-9.408-2.197-3.143-1.48-3.832-3.17-6.058-5.102l.881 1.557c-4.366-1.545-2.539-1.912-6.091-3.037l.941-1.229c-1.415-.107-3.748-2.385-4.386-3.646l-1.548.061c-1.86-2.295-2.851-3.949-2.779-5.23l-.5.891c-.567-.973-6.843-8.607-3.587-6.83-.605-.553-1.409-.9-2.281-2.484l.663-.758c-1.567-2.016-2.884-4.6-2.784-5.461.836 1.129 1.416 1.34 1.99 1.533-3.957-9.818-4.179-.541-7.176-9.994l.634-.051c-.486-.732-.781-1.527-1.172-2.307l.276-2.75c-2.849-3.294-.797-14.006-.386-19.881.285-2.389 2.378-4.932 3.97-8.92l-.97-.167c1.854-3.234 10.586-12.988 14.63-12.486 1.959-2.461-.389-.009-.772-.629 4.303-4.453 5.656-3.146 8.56-3.947 3.132-1.859-2.688.725-1.203-.709 5.414-1.383 3.837-3.144 10.9-3.846.745.424-1.729.655-2.35 1.205 4.511-2.207 14.275-1.705 20.617 1.225 7.359 3.439 15.627 13.605 15.953 23.17l.371.1c-.188 3.802.156 10.326.156 10.326" fill-rule="nonzero" transform="matrix(3.55035 0 0 3.55035 -1.36699 -1.97142)"/></svg>